<?xml version="1.0" encoding="UTF-8" standalone="no"?>
<svg
   xmlns:dc="http://purl.org/dc/elements/1.1/"
   xmlns:cc="http://creativecommons.org/ns#"
   xmlns:rdf="http://www.w3.org/1999/02/22-rdf-syntax-ns#"
   xmlns:svg="http://www.w3.org/2000/svg"
   xmlns="http://www.w3.org/2000/svg"
   xmlns:sodipodi="http://sodipodi.sourceforge.net/DTD/sodipodi-0.dtd"
   xmlns:inkscape="http://www.inkscape.org/namespaces/inkscape"
   width="79.374992mm"
   height="18.025974mm"
   viewBox="0 0 79.374992 18.025974"
   version="1.1"
   id="svg1595"
   inkscape:version="1.0.1 (3bc2e813f5, 2020-09-07)"
   sodipodi:docname="Info sphere new corrected logo 300.svg">
  <defs
     id="defs1589" />
  <sodipodi:namedview
     id="base"
     pagecolor="#ffffff"
     bordercolor="#666666"
     borderopacity="1.0"
     inkscape:pageopacity="0.0"
     inkscape:pageshadow="2"
     inkscape:zoom="2.8"
     inkscape:cx="130.93097"
     inkscape:cy="21.991898"
     inkscape:document-units="mm"
     inkscape:current-layer="layer1"
     inkscape:document-rotation="0"
     showgrid="false"
     inkscape:window-width="1640"
     inkscape:window-height="1020"
     inkscape:window-x="262"
     inkscape:window-y="0"
     inkscape:window-maximized="0"
     fit-margin-top="0"
     fit-margin-left="0"
     fit-margin-right="0"
     fit-margin-bottom="0" />
  <metadata
     id="metadata1592">
    <rdf:RDF>
      <cc:Work
         rdf:about="">
        <dc:format>image/svg+xml</dc:format>
        <dc:type
           rdf:resource="http://purl.org/dc/dcmitype/StillImage" />
        <dc:title></dc:title>
      </cc:Work>
    </rdf:RDF>
  </metadata>
  <g
     inkscape:label="Layer 1"
     inkscape:groupmode="layer"
     id="layer1"
     transform="translate(-160.64259,-127.57986)">
    <path
       d="m 165.6837,145.25908 v -0.34676 l 0.40861,-0.31541 c 0.92724,-0.7158 1.64163,-1.37842 2.07763,-1.92708 0.12864,-0.16194 0.23388,-0.30308 0.23388,-0.31363 0,-0.0504 -0.59182,0.36325 -1.08803,0.76067 -1.19181,0.95411 -2.29081,1.53159 -3.30019,1.7338 -0.48699,0.0974 -1.19892,0.0636 -1.61549,-0.077 -1.22012,-0.41182 -1.88283,-1.45047 -1.7378,-2.7234 l 0.031,-0.27203 0.15395,0.30664 c 0.21609,0.43056 0.56518,0.79886 0.92448,0.97535 0.37277,0.18304 0.64079,0.22657 1.25013,0.2031 0.78717,-0.0303 1.50874,-0.25331 2.31425,-0.71506 l 0.32816,-0.18809 0.01,-2.80705 0.01,-2.80719 h -0.73858 -0.73858 v -1.36007 -1.36007 h 2.60356 2.60356 l -1.2e-4,1.56408 -1.1e-4,1.56409 -0.36285,0.73831 c -0.42126,0.85717 -0.74766,1.42054 -1.25517,2.16643 -0.19998,0.29386 -0.35516,0.53425 -0.34486,0.53425 0.0647,0 0.87545,-0.75102 1.09921,-1.01814 1.24982,-1.49274 2.64699,-4.14202 3.21297,-6.09244 0.30705,-1.05809 0.39624,-1.73381 0.33538,-2.54097 -0.0499,-0.66218 -0.1198,-0.96054 -0.32248,-1.37664 -0.38002,-0.78016 -1.06409,-1.15844 -2.24236,-1.23996 l -0.44383,-0.0307 0.21267,-0.14099 c 0.63947,-0.42391 1.30931,-0.60965 2.04627,-0.5674 1.32244,0.0758 2.27476,0.96235 2.57665,2.39876 0.1095,0.52073 0.11826,1.47367 0.0198,2.11783 -0.3946,2.57695 -1.93551,5.73865 -4.11052,8.43391 l -0.42061,0.52118 v 2.27429 2.27414 h -1.86525 -1.86523 z"
       fill="#3e4095"
       id="path2"
       style="stroke-width:0.148568" />
    <path
       d="m 165.59557,131.79618 v -1.39891 h 0.44688 0.44688 v -0.44688 -0.44688 h 1.39892 1.39893 v 1.8458 1.84581 h -1.8458 -1.84581 z m 1.31273,-0.45659 -0.011,-0.45658 h -0.44688 -0.44687 l -0.011,0.45658 -0.011,0.45659 h 0.46876 0.46878 z m 0.5525,-0.74803 v -0.27201 h -0.27201 -0.272 v 0.27201 0.27201 h 0.272 0.27201 z m -3.06987,1.74865 v -0.34973 h 0.34975 0.34972 v 0.34973 0.34973 h -0.34972 -0.34975 z m -0.93261,-1.72923 v -0.68003 h 0.66061 0.66059 v 0.68003 0.68005 h -0.66059 -0.66061 z m 1.47665,-1.30177 v -0.42745 h 0.42745 0.42744 v 0.42745 0.42745 h -0.42744 -0.42745 z"
       fill="#00a859"
       id="path4"
       style="stroke-width:0.148568" />
    <path
       d="m 189.74422,140.9974 v -1.8305 h 0.38034 0.38034 v 0.17529 0.17531 l 0.13074,-0.12234 c 0.30783,-0.28796 0.70674,-0.37659 1.1364,-0.25248 0.35909,0.10372 0.67822,0.41733 0.8042,0.79049 0.11262,0.33315 0.11262,0.84427 0,1.17758 -0.27515,0.81431 -1.25719,1.12274 -1.87924,0.59027 l -0.1921,-0.16447 v 0.64553 0.64554 h -0.38034 -0.38034 z m 1.85414,0.22003 c 0.23266,-0.16877 0.3328,-0.3768 0.33265,-0.69067 -3e-4,-0.50063 -0.27233,-0.78878 -0.74492,-0.78912 -0.27278,-1.4e-4 -0.48062,0.13007 -0.61151,0.38345 -0.10311,0.19915 -0.0889,0.62838 0.0282,0.85789 0.17799,0.34898 0.67821,0.46888 0.99556,0.23845 z m -7.73834,0.66781 c -0.34363,-0.12271 -0.67063,-0.41183 -0.84164,-0.74403 -0.11885,-0.23102 -0.14099,-0.32845 -0.13921,-0.61336 0.003,-0.561 0.28184,-1.00956 0.78132,-1.25914 0.38049,-0.19009 0.71655,-0.22973 1.07208,-0.1264 1.08767,0.31617 1.45329,1.52428 0.71015,2.3467 -0.37617,0.41644 -1.05216,0.58566 -1.5827,0.39623 z m 0.77716,-0.62146 c 0.7785,-0.35359 0.56085,-1.52548 -0.28332,-1.52614 -0.84267,-5.6e-4 -1.06939,1.17418 -0.29461,1.52614 0.10667,0.0485 0.23667,0.088 0.28897,0.088 0.0523,0 0.18229,-0.0395 0.28896,-0.088 z m 2.52834,0.63707 c -0.30486,-0.0773 -0.6014,-0.21707 -0.83153,-0.39238 -0.17279,-0.13163 -0.16878,-0.1499 0.10132,-0.461 l 0.16298,-0.1876 0.18824,0.13039 c 0.30367,0.21053 0.63944,0.31616 1.00536,0.31616 0.28421,0 0.34839,-0.0166 0.47482,-0.12316 0.29357,-0.24707 0.15244,-0.57098 -0.29966,-0.68792 -0.77612,-0.20076 -0.95723,-0.26132 -1.17815,-0.39411 -0.28629,-0.17196 -0.40708,-0.35037 -0.45016,-0.66435 -0.063,-0.45926 0.19255,-0.91394 0.63483,-1.1297 0.19047,-0.0929 0.30398,-0.11113 0.70258,-0.11281 0.5295,-0.002 0.80777,0.0704 1.18424,0.30914 l 0.22345,0.14171 -0.19894,0.28352 -0.19878,0.28353 -0.13445,-0.0957 c -0.40188,-0.28618 -0.99021,-0.38952 -1.24961,-0.21951 -0.27411,0.1796 -0.28377,0.49521 -0.0195,0.63195 0.0835,0.0432 0.38153,0.13876 0.66203,0.21237 0.57688,0.15135 0.81564,0.26002 1.00031,0.45526 0.16119,0.17057 0.22879,0.34869 0.2285,0.60172 -5.6e-4,0.48058 -0.23846,0.84264 -0.67763,1.03176 -0.31778,0.13698 -0.93895,0.16997 -1.33028,0.0707 z m 10.20918,0.004 c -0.60927,-0.1927 -0.96629,-0.64152 -1.01145,-1.27155 -0.0735,-1.02311 0.81639,-1.77064 1.77584,-1.49174 0.52445,0.15249 0.87032,0.64357 0.9501,1.34943 l 0.0331,0.29175 h -1.00314 c -0.93464,0 -1.0009,0.006 -0.97356,0.0832 0.044,0.1248 0.21171,0.29713 0.3683,0.37855 0.17724,0.0923 0.54435,0.0543 0.75873,-0.078 l 0.15451,-0.0955 0.23444,0.23949 0.23445,0.23964 -0.14263,0.11633 c -0.18333,0.14961 -0.6843,0.30576 -0.96777,0.30175 -0.12138,-0.002 -0.30635,-0.0303 -0.41095,-0.0633 z m 0.95114,-1.83479 c -0.18972,-0.36674 -0.66336,-0.43109 -0.99971,-0.13581 -0.28644,0.25157 -0.24336,0.27798 0.45387,0.27798 h 0.61923 z m 4.32602,1.83835 c -0.42446,-0.13995 -0.75948,-0.46309 -0.90597,-0.87358 -0.0355,-0.0994 -0.0654,-0.34317 -0.0666,-0.54164 -0.002,-0.30979 0.0184,-0.40203 0.14337,-0.6518 0.0799,-0.16002 0.21364,-0.34866 0.29714,-0.41921 0.48076,-0.40643 1.2453,-0.4492 1.70973,-0.0957 0.29074,0.22129 0.51478,0.68049 0.54628,1.11901 l 0.0241,0.33721 h -0.981 c -0.5396,0 -0.98085,0.0161 -0.98085,0.0357 4.5e-4,0.10352 0.19983,0.33856 0.34617,0.40795 0.23474,0.11127 0.45536,0.0989 0.72724,-0.041 l 0.23385,-0.1202 0.22523,0.25093 c 0.25806,0.28764 0.25791,0.28808 -0.19002,0.49786 -0.30531,0.14307 -0.84447,0.18824 -1.12868,0.0945 z m 1.02215,-1.76383 c 0,-0.11718 -0.28138,-0.35519 -0.45937,-0.38858 -0.24009,-0.045 -0.57868,0.10205 -0.6956,0.30236 l -0.0899,0.15387 h 0.62251 c 0.50662,0 0.62235,-0.0126 0.62235,-0.0676 z m 7.67,1.74184 c -0.49087,-0.1759 -0.76498,-0.48285 -0.89884,-1.00684 -0.25078,-0.98188 0.51836,-1.90344 1.49312,-1.78887 0.67643,0.0795 1.10698,0.58583 1.18216,1.38991 l 0.0281,0.30212 h -0.98144 c -1.07044,0 -1.08114,0.003 -0.87834,0.26086 0.21423,0.27232 0.5968,0.33279 0.95589,0.15094 l 0.21943,-0.11098 0.2389,0.24187 0.2389,0.24187 -0.15317,0.10459 c -0.41124,0.28109 -1.01057,0.37009 -1.44468,0.21453 z m 1.07772,-1.72008 c 0,-0.0253 -0.0658,-0.12084 -0.14619,-0.21247 -0.1719,-0.19568 -0.39609,-0.25479 -0.66307,-0.1748 -0.16802,0.0503 -0.42683,0.28642 -0.42683,0.38927 0,0.0246 0.27188,0.0439 0.61804,0.0439 0.36548,0 0.61805,-0.0188 0.61805,-0.0459 z m 1.94922,1.75158 c -0.15645,-0.0624 -0.32358,-0.22167 -0.41822,-0.39831 -0.059,-0.11009 -0.0808,-0.32923 -0.096,-0.96269 l -0.0195,-0.8201 h -0.16105 -0.16105 v -0.28525 -0.28526 h 0.16446 0.16447 l 0.0138,-0.39222 0.0138,-0.39222 0.34274,-0.0139 0.34276,-0.0139 0.0138,0.39427 0.014,0.39426 0.29714,0.0142 0.29714,0.0141 v 0.28072 0.2807 l -0.29714,0.0142 -0.29714,0.0141 -0.0145,0.52296 c -0.0195,0.69692 0.0143,0.90908 0.15941,1.00416 0.0899,0.059 0.1456,0.0648 0.2551,0.0266 0.13712,-0.0478 0.14188,-0.0441 0.21483,0.16996 0.041,0.12034 0.0746,0.23742 0.0746,0.26015 0,0.0227 -0.0909,0.0826 -0.20205,0.13311 -0.21855,0.0991 -0.51168,0.11604 -0.7014,0.0404 z m 6.61813,-0.0367 c -0.47765,-0.16491 -0.8559,-0.58803 -0.96599,-1.08033 -0.15912,-0.71088 0.31496,-1.44799 1.06717,-1.65902 0.63008,-0.17679 1.33102,0.10284 1.64792,0.65734 0.21022,0.36799 0.26103,0.67682 0.16981,1.03272 -0.22181,0.86581 -1.0844,1.33751 -1.91891,1.04929 z m 0.77835,-0.61819 c 0.77478,-0.35181 0.54807,-1.5267 -0.29461,-1.52607 -0.66217,4.5e-4 -1.00358,0.76892 -0.58046,1.30678 0.11009,0.1401 0.42922,0.30739 0.58611,0.30739 0.0523,0 0.18229,-0.0397 0.28896,-0.0881 z m 7.55546,0.67688 c -0.17264,-0.037 -0.51895,-0.17368 -0.67807,-0.26758 l -0.15659,-0.0924 0.12657,-0.22032 c 0.0695,-0.12123 0.14129,-0.23697 0.15942,-0.25718 0.018,-0.0202 0.15956,0.0217 0.31452,0.0933 0.34483,0.15941 0.82055,0.18541 0.95396,0.0523 0.0669,-0.0669 0.0718,-0.10265 0.0275,-0.20012 -0.0422,-0.0927 -0.13,-0.14084 -0.40069,-0.2202 -0.57422,-0.16824 -0.73615,-0.23856 -0.86912,-0.37729 -0.23043,-0.24051 -0.24039,-0.69526 -0.022,-1.00192 0.28495,-0.40026 1.09391,-0.47395 1.72146,-0.15683 l 0.22612,0.11427 -0.11826,0.23338 c -0.14664,0.2896 -0.17813,0.30922 -0.35151,0.21957 -0.40872,-0.21135 -0.90954,-0.18559 -0.90954,0.0468 0,0.13542 0.12613,0.20771 0.5705,0.32717 0.60409,0.1624 0.89929,0.44393 0.90226,0.86069 0.003,0.34765 -0.31541,0.72086 -0.70644,0.82946 -0.16982,0.0471 -0.60542,0.0565 -0.79009,0.017 z m 9.22313,-0.0322 c -0.3227,-0.10697 -0.47854,-0.20845 -0.70259,-0.45774 -0.49264,-0.54792 -0.49428,-1.30764 -0.004,-1.85309 0.36696,-0.40825 0.89438,-0.58712 1.41348,-0.47938 0.26371,0.0548 0.71922,0.3123 0.71922,0.40665 0,0.0268 -0.0918,0.13181 -0.20414,0.23322 l -0.20413,0.18442 -0.20518,-0.10248 c -0.38152,-0.19056 -0.7617,-0.11394 -1.00283,0.20206 -0.2386,0.31298 -0.21646,0.72838 0.0553,1.029 0.27752,0.30724 0.70273,0.3481 1.02052,0.0981 l 0.11365,-0.0894 0.23608,0.20473 0.23608,0.20473 -0.0941,0.104 c -0.26995,0.29877 -0.95455,0.45536 -1.37752,0.31526 z m -62.3037,-1.83805 v -1.85413 h 0.38033 0.38034 v 1.85413 1.85417 h -0.38034 -0.38033 z m 1.4738,0.47542 v -1.37872 h 0.38033 0.38034 v 0.14263 c 0,0.0784 0.0214,0.14263 0.0476,0.14263 0.0262,0 0.0476,-0.0205 0.0476,-0.0455 0,-0.0758 0.39118,-0.28026 0.60022,-0.31367 0.31288,-0.05 0.6904,0.0827 0.88636,0.31165 0.24439,0.28552 0.27247,0.44444 0.27247,1.53878 v 0.981 h -0.35656 -0.35657 v -0.88191 c 0,-0.94214 -0.0269,-1.07603 -0.24796,-1.23085 -0.13475,-0.0943 -0.42891,-0.0953 -0.60928,-0.002 -0.2545,0.13154 -0.28376,0.2589 -0.28376,1.23296 v 0.8819 h -0.38034 -0.38034 z m 3.47056,0.28525 v -1.09346 h -0.19017 -0.19017 v -0.28238 -0.28239 l 0.17829,-0.0148 0.17828,-0.0148 0.0339,-0.30718 c 0.0545,-0.49515 0.32923,-0.76251 0.78325,-0.76251 0.32002,0 0.65801,0.15359 0.60824,0.27633 -0.018,0.0441 -0.0543,0.14051 -0.0811,0.21418 -0.0447,0.12364 -0.0623,0.1316 -0.22925,0.1034 -0.23607,-0.0399 -0.39103,0.0963 -0.36904,0.32408 0.0147,0.15109 0.0159,0.15176 0.31184,0.16586 l 0.29714,0.0142 v 0.28299 0.28298 h -0.30902 -0.30902 v 1.09346 1.09353 h -0.35657 -0.35656 z m 12.02811,-0.78444 v -1.87791 h 0.38033 0.38034 v 0.64182 c 0,0.39619 0.0181,0.64182 0.0476,0.64182 0.0262,0 0.0476,-0.0205 0.0476,-0.0455 0,-0.0702 0.38316,-0.27634 0.5812,-0.31253 0.29655,-0.0542 0.64315,0.0585 0.86586,0.28152 0.28183,0.28231 0.31199,0.43388 0.31199,1.56777 v 0.981 h -0.35656 -0.35656 v -0.85724 c 0,-0.92266 -0.0358,-1.10687 -0.24321,-1.2522 -0.14278,-0.10002 -0.48716,-0.0996 -0.64033,0.001 -0.23177,0.15183 -0.25747,0.27407 -0.25747,1.2267 v 0.88189 h -0.38034 -0.38033 z m 6.41816,0.49919 v -1.37872 h 0.38033 0.38034 v 0.2444 0.24441 l 0.19344,-0.21976 c 0.1447,-0.16441 0.25464,-0.23795 0.43649,-0.29195 0.13371,-0.0397 0.26059,-0.0722 0.28198,-0.0722 0.0214,0 0.0389,0.14976 0.0389,0.33279 v 0.3328 h -0.14412 c -0.30248,0 -0.64493,0.24365 -0.75621,0.53793 -0.0279,0.0742 -0.0505,0.47174 -0.0505,0.89148 v 0.75755 h -0.38034 -0.38034 z m 6.84604,-0.47734 v -1.85606 l 0.39073,0.0138 0.39059,0.0138 0.85739,1.17366 c 0.47141,0.64549 0.87328,1.17499 0.89289,1.17665 0.0196,0.002 0.0357,-0.53183 0.0357,-1.18552 v -1.18855 h 0.38034 0.38033 v 1.85606 1.85609 l -0.39044,-0.0138 -0.39059,-0.0138 -0.85738,-1.17394 c -0.47171,-0.64566 -0.87359,-1.17516 -0.8932,-1.17666 -0.0196,-0.002 -0.0357,0.53209 -0.0357,1.1858 v 1.18857 h -0.38034 -0.38033 z m 10.00728,1.79666 c -0.0116,-0.0327 -0.22375,-0.65311 -0.47141,-1.37875 l -0.45031,-1.31929 h 0.36964 0.36948 l 0.2288,0.77257 c 0.12599,0.4249 0.24455,0.81534 0.26386,0.86763 0.0328,0.0893 0.0905,-0.0723 0.5292,-1.48568 0.0478,-0.15429 0.0484,-0.15452 0.3683,-0.15452 h 0.32047 l 0.22983,0.74879 c 0.12628,0.41184 0.25004,0.80227 0.27485,0.86764 0.0393,0.10299 0.0731,0.0268 0.2545,-0.5705 0.11499,-0.37915 0.23132,-0.76958 0.25851,-0.86764 l 0.0493,-0.17829 h 0.35463 c 0.19507,0 0.35478,0.0163 0.35478,0.0363 0,0.02 -0.19967,0.63503 -0.44362,1.36681 l -0.44378,1.3306 -0.33814,0.0138 -0.33814,0.014 -0.0942,-0.32299 c -0.0518,-0.17754 -0.16268,-0.55817 -0.24603,-0.84583 -0.14025,-0.48296 -0.23548,-0.70598 -0.23548,-0.55107 0,0.0342 -0.11009,0.4343 -0.24454,0.88909 l -0.2447,0.82679 h -0.32729 c -0.219,0 -0.33443,-0.0198 -0.34854,-0.0594 z m 7.01273,-1.31932 v -1.37872 h 0.38033 0.38034 v 0.24412 0.24413 l 0.10578,-0.13716 c 0.18972,-0.24575 0.38776,-0.37096 0.67078,-0.42405 l 0.17888,-0.0336 -0.0143,0.32549 -0.0141,0.32545 -0.20666,0.0351 c -0.28896,0.0491 -0.48864,0.17865 -0.61269,0.39771 -0.0981,0.17325 -0.10623,0.24816 -0.10697,0.98391 l -5.6e-4,0.79633 h -0.38034 -0.38034 z m 2.13938,-0.49919 v -1.87791 h 0.38034 0.38034 v 1.0697 c 0,0.58833 0.0161,1.06843 0.0357,1.06688 0.0196,-0.002 0.24781,-0.25826 0.50721,-0.5705 l 0.47156,-0.5677 h 0.42327 0.42328 l -0.0866,0.1091 c -0.0477,0.06 -0.27604,0.32747 -0.50766,0.59439 -0.23548,0.27147 -0.40886,0.51142 -0.39341,0.5446 0.0153,0.0326 0.25183,0.38558 0.52563,0.78436 l 0.49786,0.72502 h -0.42624 -0.42625 l -0.33621,-0.51108 c -0.18497,-0.28109 -0.35314,-0.51746 -0.37395,-0.52504 -0.0207,-0.008 -0.10429,0.0703 -0.18585,0.17323 -0.13446,0.16982 -0.14827,0.21854 -0.14827,0.52504 v 0.33785 h -0.38034 -0.38034 z m 7.22638,0.0238 V 138.216 h 0.38033 0.38034 v 1.85413 1.85418 h -0.38034 -0.38033 z m 1.4738,0.47542 v -1.37871 h 0.38033 0.38034 v 0.15091 0.1509 l 0.10697,-0.0978 c 0.50513,-0.46183 1.30562,-0.34371 1.61687,0.2385 0.0995,0.18632 0.10756,0.26821 0.12168,1.25716 l 0.0152,1.0578 h -0.35984 -0.35983 v -0.85739 c 0,-0.92253 -0.0358,-1.10673 -0.24321,-1.25206 -0.0648,-0.0453 -0.20472,-0.0775 -0.3371,-0.0775 -0.18289,0 -0.25628,0.0266 -0.38167,0.13863 l -0.15526,0.13863 -0.0147,0.95486 -0.0145,0.95485 h -0.37766 -0.37752 z"
       fill="#3e4095"
       id="path6"
       style="stroke-width:0.148568" />
    <g
       aria-label="SOLUTIONS BEYOND COMPUTING...."
       transform="matrix(0.14856852,0,0,0.14856852,166.71149,102.88469)"
       id="text2641"
       style="font-style:normal;font-weight:normal;font-size:17px;line-height:1.25;font-family:sans-serif;letter-spacing:0.86px;white-space:pre;shape-inside:url(#rect2643);fill:#00a859;fill-opacity:1;stroke:none">
      <path
         d="m 168.46094,282.92612 1.51904,-0.13281 q 0.10791,0.91308 0.49805,1.50244 0.39843,0.58105 1.22851,0.94629 0.83008,0.35693 1.86768,0.35693 0.92139,0 1.62695,-0.27392 0.70557,-0.27393 1.0459,-0.74708 0.34863,-0.48144 0.34863,-1.04589 0,-0.57276 -0.33203,-0.9961 -0.33203,-0.43164 -1.0957,-0.72217 -0.48975,-0.19091 -2.16651,-0.58935 -1.67675,-0.40674 -2.34912,-0.76367 -0.87158,-0.45655 -1.30322,-1.12891 -0.42334,-0.68066 -0.42334,-1.51904 0,-0.92139 0.52295,-1.71826 0.52295,-0.80518 1.52734,-1.22022 1.0044,-0.41504 2.23291,-0.41504 1.35303,0 2.38233,0.43994 1.0376,0.43164 1.59375,1.27832 0.55615,0.84668 0.59765,1.91748 l -1.54394,0.11622 q -0.12451,-1.15381 -0.84668,-1.74317 -0.71387,-0.58935 -2.1167,-0.58935 -1.46094,0 -2.1333,0.53955 -0.66406,0.53125 -0.66406,1.28662 0,0.65576 0.47314,1.0791 0.46485,0.42334 2.42383,0.87158 1.96729,0.43994 2.69775,0.77197 1.0625,0.48975 1.56885,1.24512 0.50635,0.74707 0.50635,1.72656 0,0.9712 -0.55615,1.83448 -0.55616,0.85498 -1.60205,1.33642 -1.0376,0.47315 -2.34082,0.47315 -1.65186,0 -2.77247,-0.48145 -1.1123,-0.48144 -1.75146,-1.44433 -0.63086,-0.9712 -0.66406,-2.19141 z"
         style="font-style:normal;font-variant:normal;font-weight:normal;font-stretch:normal;font-size:17px;font-family:Arial;-inkscape-font-specification:Arial;fill:#00a859;fill-opacity:1"
         id="path2663" />
      <path
         d="m 180.71791,280.90903 q 0,-3.02979 1.62695,-4.73975 1.62696,-1.71826 4.2002,-1.71826 1.68506,0 3.03808,0.80518 1.35303,0.80517 2.0586,2.24951 0.71387,1.43603 0.71387,3.26221 0,1.85107 -0.74708,3.31201 -0.74707,1.46094 -2.11669,2.21631 -1.36963,0.74707 -2.95508,0.74707 -1.71826,0 -3.07129,-0.83008 -1.35303,-0.83008 -2.05029,-2.26611 -0.69727,-1.43604 -0.69727,-3.03809 z m 1.66016,0.0249 q 0,2.19971 1.17871,3.46973 1.18701,1.26172 2.97168,1.26172 1.81787,0 2.98828,-1.27832 1.17871,-1.27832 1.17871,-3.62744 0,-1.48584 -0.50635,-2.58985 -0.49805,-1.1123 -1.46924,-1.71826 -0.96289,-0.61426 -2.1665,-0.61426 -1.70996,0 -2.94678,1.17871 -1.22851,1.17041 -1.22851,3.91797 z"
         style="font-style:normal;font-variant:normal;font-weight:normal;font-stretch:normal;font-size:17px;font-family:Arial;-inkscape-font-specification:Arial;fill:#00a859;fill-opacity:1"
         id="path2665" />
      <path
         d="m 195.22439,286.83579 v -12.16895 h 1.61036 v 10.73291 h 5.99316 v 1.43604 z"
         style="font-style:normal;font-variant:normal;font-weight:normal;font-stretch:normal;font-size:17px;font-family:Arial;-inkscape-font-specification:Arial;fill:#00a859;fill-opacity:1"
         id="path2667" />
      <path
         d="m 213.59074,274.66684 h 1.61036 v 7.03076 q 0,1.83448 -0.41504,2.91358 -0.41504,1.0791 -1.50244,1.75976 -1.07911,0.67237 -2.83887,0.67237 -1.70996,0 -2.79737,-0.58936 -1.0874,-0.58935 -1.55224,-1.70166 -0.46485,-1.1206 -0.46485,-3.05469 v -7.03076 h 1.61036 v 7.02246 q 0,1.58545 0.29052,2.34082 0.29883,0.74707 1.0127,1.15381 0.72217,0.40674 1.75976,0.40674 1.77637,0 2.53174,-0.80518 0.75537,-0.80517 0.75537,-3.09619 z"
         style="font-style:normal;font-variant:normal;font-weight:normal;font-stretch:normal;font-size:17px;font-family:Arial;-inkscape-font-specification:Arial;fill:#00a859;fill-opacity:1"
         id="path2669" />
      <path
         d="m 221.83844,286.83579 v -10.73291 h -4.00928 v -1.43604 h 9.64551 v 1.43604 h -4.02588 v 10.73291 z"
         style="font-style:normal;font-variant:normal;font-weight:normal;font-stretch:normal;font-size:17px;font-family:Arial;-inkscape-font-specification:Arial;fill:#00a859;fill-opacity:1"
         id="path2671" />
      <path
         d="m 230.26045,286.83579 v -12.16895 h 1.61035 v 12.16895 z"
         style="font-style:normal;font-variant:normal;font-weight:normal;font-stretch:normal;font-size:17px;font-family:Arial;-inkscape-font-specification:Arial;fill:#00a859;fill-opacity:1"
         id="path2673" />
      <path
         d="m 235.07993,280.90903 q 0,-3.02979 1.62695,-4.73975 1.62695,-1.71826 4.20019,-1.71826 1.68506,0 3.03809,0.80518 1.35303,0.80517 2.05859,2.24951 0.71387,1.43603 0.71387,3.26221 0,1.85107 -0.74707,3.31201 -0.74707,1.46094 -2.1167,2.21631 -1.36963,0.74707 -2.95508,0.74707 -1.71826,0 -3.07129,-0.83008 -1.35302,-0.83008 -2.05029,-2.26611 -0.69726,-1.43604 -0.69726,-3.03809 z m 1.66015,0.0249 q 0,2.19971 1.17871,3.46973 1.18701,1.26172 2.97168,1.26172 1.81787,0 2.98828,-1.27832 1.17871,-1.27832 1.17871,-3.62744 0,-1.48584 -0.50634,-2.58985 -0.49805,-1.1123 -1.46924,-1.71826 -0.96289,-0.61426 -2.16651,-0.61426 -1.70996,0 -2.94677,1.17871 -1.22852,1.17041 -1.22852,3.91797 z"
         style="font-style:normal;font-variant:normal;font-weight:normal;font-stretch:normal;font-size:17px;font-family:Arial;-inkscape-font-specification:Arial;fill:#00a859;fill-opacity:1"
         id="path2675" />
      <path
         d="m 249.63621,286.83579 v -12.16895 h 1.65185 l 6.3916,9.5542 v -9.5542 h 1.54395 v 12.16895 h -1.65186 l -6.3916,-9.5625 v 9.5625 z"
         style="font-style:normal;font-variant:normal;font-weight:normal;font-stretch:normal;font-size:17px;font-family:Arial;-inkscape-font-specification:Arial;fill:#00a859;fill-opacity:1"
         id="path2677" />
      <path
         d="m 262.24181,282.92612 1.51905,-0.13281 q 0.10791,0.91308 0.49804,1.50244 0.39844,0.58105 1.22852,0.94629 0.83008,0.35693 1.86767,0.35693 0.92139,0 1.62696,-0.27392 0.70556,-0.27393 1.0459,-0.74708 0.34863,-0.48144 0.34863,-1.04589 0,-0.57276 -0.33203,-0.9961 -0.33203,-0.43164 -1.09571,-0.72217 -0.48974,-0.19091 -2.1665,-0.58935 -1.67676,-0.40674 -2.34912,-0.76367 -0.87158,-0.45655 -1.30322,-1.12891 -0.42334,-0.68066 -0.42334,-1.51904 0,-0.92139 0.52295,-1.71826 0.52295,-0.80518 1.52734,-1.22022 1.00439,-0.41504 2.23291,-0.41504 1.35303,0 2.38232,0.43994 1.0376,0.43164 1.59375,1.27832 0.55616,0.84668 0.59766,1.91748 l -1.54394,0.11622 q -0.12452,-1.15381 -0.84668,-1.74317 -0.71387,-0.58935 -2.1167,-0.58935 -1.46094,0 -2.1333,0.53955 -0.66407,0.53125 -0.66407,1.28662 0,0.65576 0.47315,1.0791 0.46484,0.42334 2.42383,0.87158 1.96728,0.43994 2.69775,0.77197 1.0625,0.48975 1.56885,1.24512 0.50635,0.74707 0.50635,1.72656 0,0.9712 -0.55616,1.83448 -0.55615,0.85498 -1.60205,1.33642 -1.0376,0.47315 -2.34082,0.47315 -1.65185,0 -2.77246,-0.48145 -1.1123,-0.48144 -1.75146,-1.44433 -0.63086,-0.9712 -0.66407,-2.19141 z"
         style="font-style:normal;font-variant:normal;font-weight:normal;font-stretch:normal;font-size:17px;font-family:Arial;-inkscape-font-specification:Arial;fill:#00a859;fill-opacity:1"
         id="path2679" />
      <path
         d="m 280.50527,286.83579 v -12.16895 h 4.56543 q 1.39453,0 2.23291,0.37354 0.84668,0.36523 1.31983,1.1372 0.48144,0.76368 0.48144,1.60205 0,0.78028 -0.42334,1.46924 -0.42334,0.68897 -1.27832,1.11231 1.10401,0.32373 1.69336,1.104 0.59766,0.78028 0.59766,1.84278 0,0.85498 -0.36524,1.59375 -0.35693,0.73046 -0.88818,1.1289 -0.53125,0.39844 -1.33643,0.60596 -0.79687,0.19922 -1.95898,0.19922 z m 1.61035,-7.05567 h 2.63135 q 1.0708,0 1.53565,-0.14111 0.61425,-0.18262 0.92138,-0.60596 0.31543,-0.42334 0.31543,-1.0625 0,-0.60595 -0.29053,-1.0625 -0.29052,-0.46484 -0.83007,-0.63086 -0.53955,-0.17431 -1.85108,-0.17431 h -2.43213 z m 0,5.61963 h 3.02979 q 0.78027,0 1.0957,-0.0581 0.55615,-0.0996 0.92969,-0.33203 0.37353,-0.23243 0.61426,-0.67237 0.24072,-0.44824 0.24072,-1.02929 0,-0.68067 -0.34863,-1.17872 -0.34864,-0.50634 -0.97119,-0.70556 -0.61426,-0.20752 -1.77637,-0.20752 h -2.81397 z"
         style="font-style:normal;font-variant:normal;font-weight:normal;font-stretch:normal;font-size:17px;font-family:Arial;-inkscape-font-specification:Arial;fill:#00a859;fill-opacity:1"
         id="path2681" />
      <path
         d="m 292.80375,286.83579 v -12.16895 h 8.79883 v 1.43604 h -7.18848 v 3.72705 h 6.73193 v 1.42773 h -6.73193 v 4.14209 h 7.4707 v 1.43604 z"
         style="font-style:normal;font-variant:normal;font-weight:normal;font-stretch:normal;font-size:17px;font-family:Arial;-inkscape-font-specification:Arial;fill:#00a859;fill-opacity:1"
         id="path2683" />
      <path
         d="M 308.39764,286.83579 V 281.681 l -4.68994,-7.01416 h 1.95899 l 2.39892,3.66895 q 0.66407,1.02929 1.23682,2.05859 0.54785,-0.95459 1.32812,-2.1499 l 2.35743,-3.57764 h 1.87597 L 310.008,281.681 v 5.15479 z"
         style="font-style:normal;font-variant:normal;font-weight:normal;font-stretch:normal;font-size:17px;font-family:Arial;-inkscape-font-specification:Arial;fill:#00a859;fill-opacity:1"
         id="path2685" />
      <path
         d="m 316.67853,280.90903 q 0,-3.02979 1.62695,-4.73975 1.62695,-1.71826 4.2002,-1.71826 1.68505,0 3.03808,0.80518 1.35303,0.80517 2.0586,2.24951 0.71386,1.43603 0.71386,3.26221 0,1.85107 -0.74707,3.31201 -0.74707,1.46094 -2.1167,2.21631 -1.36963,0.74707 -2.95507,0.74707 -1.71827,0 -3.07129,-0.83008 -1.35303,-0.83008 -2.0503,-2.26611 -0.69726,-1.43604 -0.69726,-3.03809 z m 1.66015,0.0249 q 0,2.19971 1.17872,3.46973 1.18701,1.26172 2.97167,1.26172 1.81788,0 2.98829,-1.27832 1.17871,-1.27832 1.17871,-3.62744 0,-1.48584 -0.50635,-2.58985 -0.49805,-1.1123 -1.46924,-1.71826 -0.96289,-0.61426 -2.1665,-0.61426 -1.70996,0 -2.94678,1.17871 -1.22852,1.17041 -1.22852,3.91797 z"
         style="font-style:normal;font-variant:normal;font-weight:normal;font-stretch:normal;font-size:17px;font-family:Arial;-inkscape-font-specification:Arial;fill:#00a859;fill-opacity:1"
         id="path2687" />
      <path
         d="m 331.23482,286.83579 v -12.16895 h 1.65185 l 6.3916,9.5542 v -9.5542 h 1.54395 v 12.16895 h -1.65186 l -6.3916,-9.5625 v 9.5625 z"
         style="font-style:normal;font-variant:normal;font-weight:normal;font-stretch:normal;font-size:17px;font-family:Arial;-inkscape-font-specification:Arial;fill:#00a859;fill-opacity:1"
         id="path2689" />
      <path
         d="m 344.38828,286.83579 v -12.16895 h 4.19189 q 1.41943,0 2.1665,0.17432 1.0459,0.24072 1.78467,0.87158 0.96289,0.81348 1.43604,2.0835 0.48144,1.26172 0.48144,2.88867 0,1.38623 -0.32373,2.45703 -0.32373,1.0708 -0.83008,1.77637 -0.50634,0.69726 -1.1123,1.104 -0.59766,0.39844 -1.45264,0.60596 -0.84668,0.20752 -1.95068,0.20752 z m 1.61035,-1.43604 h 2.59814 q 1.20361,0 1.88428,-0.22412 0.68896,-0.22412 1.0957,-0.63086 0.57276,-0.57275 0.88819,-1.53564 0.32373,-0.97119 0.32373,-2.34912 0,-1.90918 -0.63086,-2.93018 -0.62256,-1.0293 -1.51905,-1.37793 -0.64746,-0.24902 -2.08349,-0.24902 h -2.55664 z"
         style="font-style:normal;font-variant:normal;font-weight:normal;font-stretch:normal;font-size:17px;font-family:Arial;-inkscape-font-specification:Arial;fill:#00a859;fill-opacity:1"
         id="path2691" />
      <path
         d="m 371.79089,282.56919 1.61036,0.40673 q -0.50635,1.98389 -1.82618,3.02979 -1.31152,1.0376 -3.2124,1.0376 -1.96728,0 -3.2041,-0.79688 -1.22852,-0.80517 -1.87598,-2.32422 -0.63916,-1.51904 -0.63916,-3.2622 0,-1.90088 0.72217,-3.31202 0.73047,-1.41943 2.0669,-2.1499 1.34472,-0.73877 2.95507,-0.73877 1.82618,0 3.07129,0.92969 1.24512,0.92969 1.73487,2.61475 l -1.58545,0.37353 q -0.42334,-1.32812 -1.22852,-1.93408 -0.80518,-0.60596 -2.02539,-0.60596 -1.40283,0 -2.34912,0.67237 -0.93799,0.67236 -1.31983,1.80957 -0.38183,1.1289 -0.38183,2.33252 0,1.55224 0.44824,2.71435 0.45654,1.15381 1.41113,1.72656 0.95459,0.57276 2.0669,0.57276 1.35303,0 2.29101,-0.78028 0.93799,-0.78027 1.27002,-2.31591 z"
         style="font-style:normal;font-variant:normal;font-weight:normal;font-stretch:normal;font-size:17px;font-family:Arial;-inkscape-font-specification:Arial;fill:#00a859;fill-opacity:1"
         id="path2693" />
      <path
         d="m 375.75539,280.90903 q 0,-3.02979 1.62695,-4.73975 1.62695,-1.71826 4.20019,-1.71826 1.68506,0 3.03809,0.80518 1.35303,0.80517 2.05859,2.24951 0.71387,1.43603 0.71387,3.26221 0,1.85107 -0.74707,3.31201 -0.74707,1.46094 -2.1167,2.21631 -1.36963,0.74707 -2.95508,0.74707 -1.71826,0 -3.07129,-0.83008 -1.35302,-0.83008 -2.05029,-2.26611 -0.69726,-1.43604 -0.69726,-3.03809 z m 1.66015,0.0249 q 0,2.19971 1.17871,3.46973 1.18702,1.26172 2.97168,1.26172 1.81787,0 2.98828,-1.27832 1.17872,-1.27832 1.17872,-3.62744 0,-1.48584 -0.50635,-2.58985 -0.49805,-1.1123 -1.46924,-1.71826 -0.96289,-0.61426 -2.1665,-0.61426 -1.70997,0 -2.94678,1.17871 -1.22852,1.17041 -1.22852,3.91797 z"
         style="font-style:normal;font-variant:normal;font-weight:normal;font-stretch:normal;font-size:17px;font-family:Arial;-inkscape-font-specification:Arial;fill:#00a859;fill-opacity:1"
         id="path2695" />
      <path
         d="m 390.27847,286.83579 v -12.16895 h 2.42383 l 2.88037,8.61621 q 0.39844,1.20362 0.58106,1.80127 0.20752,-0.66406 0.64746,-1.95068 l 2.91357,-8.4668 h 2.16651 v 12.16895 h -1.55225 v -10.18506 l -3.53613,10.18506 h -1.45264 l -3.51953,-10.35938 v 10.35938 z"
         style="font-style:normal;font-variant:normal;font-weight:normal;font-stretch:normal;font-size:17px;font-family:Arial;-inkscape-font-specification:Arial;fill:#00a859;fill-opacity:1"
         id="path2697" />
      <path
         d="m 405.34941,286.83579 v -12.16895 h 4.59033 q 1.21192,0 1.85108,0.11621 0.89648,0.14942 1.50244,0.57276 0.60596,0.41504 0.97119,1.17041 0.37354,0.75537 0.37354,1.66015 0,1.55225 -0.9878,2.63135 -0.98779,1.0708 -3.56933,1.0708 h -3.1211 v 4.94727 z m 1.61035,-6.3833 h 3.146 q 1.56055,0 2.21631,-0.58106 0.65576,-0.58105 0.65576,-1.63525 0,-0.76367 -0.39014,-1.30322 -0.38183,-0.54786 -1.01269,-0.72217 -0.40674,-0.10791 -1.50244,-0.10791 h -3.1128 z"
         style="font-style:normal;font-variant:normal;font-weight:normal;font-stretch:normal;font-size:17px;font-family:Arial;-inkscape-font-specification:Arial;fill:#00a859;fill-opacity:1"
         id="path2699" />
      <path
         d="m 425.53363,274.66684 h 1.61035 v 7.03076 q 0,1.83448 -0.41504,2.91358 -0.41504,1.0791 -1.50244,1.75976 -1.0791,0.67237 -2.83887,0.67237 -1.70996,0 -2.79736,-0.58936 -1.0874,-0.58935 -1.55225,-1.70166 -0.46484,-1.1206 -0.46484,-3.05469 v -7.03076 h 1.61035 v 7.02246 q 0,1.58545 0.29053,2.34082 0.29883,0.74707 1.0127,1.15381 0.72216,0.40674 1.75976,0.40674 1.77637,0 2.53174,-0.80518 0.75537,-0.80517 0.75537,-3.09619 z"
         style="font-style:normal;font-variant:normal;font-weight:normal;font-stretch:normal;font-size:17px;font-family:Arial;-inkscape-font-specification:Arial;fill:#00a859;fill-opacity:1"
         id="path2701" />
      <path
         d="m 433.78134,286.83579 v -10.73291 h -4.00928 v -1.43604 h 9.64551 v 1.43604 h -4.02588 v 10.73291 z"
         style="font-style:normal;font-variant:normal;font-weight:normal;font-stretch:normal;font-size:17px;font-family:Arial;-inkscape-font-specification:Arial;fill:#00a859;fill-opacity:1"
         id="path2703" />
      <path
         d="m 442.20334,286.83579 v -12.16895 h 1.61035 v 12.16895 z"
         style="font-style:normal;font-variant:normal;font-weight:normal;font-stretch:normal;font-size:17px;font-family:Arial;-inkscape-font-specification:Arial;fill:#00a859;fill-opacity:1"
         id="path2705" />
      <path
         d="m 447.49597,286.83579 v -12.16895 h 1.65186 l 6.3916,9.5542 v -9.5542 h 1.54394 v 12.16895 h -1.65185 l -6.3916,-9.5625 v 9.5625 z"
         style="font-style:normal;font-variant:normal;font-weight:normal;font-stretch:normal;font-size:17px;font-family:Arial;-inkscape-font-specification:Arial;fill:#00a859;fill-opacity:1"
         id="path2707" />
      <path
         d="m 466.34375,282.06284 v -1.42774 l 5.15479,-0.008 v 4.51563 q -1.18702,0.94629 -2.44874,1.42773 -1.26171,0.47315 -2.58984,0.47315 -1.79297,0 -3.26221,-0.76368 -1.46093,-0.77197 -2.208,-2.2246 -0.74707,-1.45264 -0.74707,-3.24561 0,-1.77637 0.73877,-3.31201 0.74707,-1.54395 2.1416,-2.29102 1.39453,-0.74707 3.2124,-0.74707 1.31982,0 2.38232,0.43164 1.0708,0.42334 1.67676,1.18701 0.60596,0.76368 0.92139,1.99219 l -1.45264,0.39844 q -0.27392,-0.92969 -0.68066,-1.46094 -0.40674,-0.53125 -1.16211,-0.84668 -0.75537,-0.32373 -1.67676,-0.32373 -1.104,0 -1.90918,0.34033 -0.80518,0.33204 -1.30322,0.87989 -0.48975,0.54785 -0.76367,1.20361 -0.46485,1.12891 -0.46485,2.44873 0,1.62695 0.55615,2.72266 0.56446,1.0957 1.63526,1.62695 1.0708,0.53125 2.27441,0.53125 1.0459,0 2.04199,-0.39844 0.9961,-0.40674 1.51075,-0.86328 v -2.26611 z"
         style="font-style:normal;font-variant:normal;font-weight:normal;font-stretch:normal;font-size:17px;font-family:Arial;-inkscape-font-specification:Arial;fill:#00a859;fill-opacity:1"
         id="path2709" />
      <path
         d="m 474.96497,286.83579 v -1.70166 h 1.70166 v 1.70166 z"
         style="font-style:normal;font-variant:normal;font-weight:normal;font-stretch:normal;font-size:17px;font-family:Arial;-inkscape-font-specification:Arial;fill:#00a859;fill-opacity:1"
         id="path2711" />
      <path
         d="m 480.54813,286.83579 v -1.70166 h 1.70166 v 1.70166 z"
         style="font-style:normal;font-variant:normal;font-weight:normal;font-stretch:normal;font-size:17px;font-family:Arial;-inkscape-font-specification:Arial;fill:#00a859;fill-opacity:1"
         id="path2713" />
      <path
         d="m 486.13126,286.83579 v -1.70166 h 1.70166 v 1.70166 z"
         style="font-style:normal;font-variant:normal;font-weight:normal;font-stretch:normal;font-size:17px;font-family:Arial;-inkscape-font-specification:Arial;fill:#00a859;fill-opacity:1"
         id="path2715" />
      <path
         d="m 491.71442,286.83579 v -1.70166 h 1.70166 v 1.70166 z"
         style="font-style:normal;font-variant:normal;font-weight:normal;font-stretch:normal;font-size:17px;font-family:Arial;-inkscape-font-specification:Arial;fill:#00a859;fill-opacity:1"
         id="path2717" />
    </g>
  </g>
</svg>
